<mxfile host="app.diagrams.net" agent="Mozilla/5.0 (Macintosh; Intel Mac OS X 10_15_7) AppleWebKit/537.36 (KHTML, like Gecko) Chrome/139.0.0.0 Safari/537.36" version="28.2.0">
  <diagram name="Page-1" id="neuu8eK9gINLb9h6O5nd">
    <mxGraphModel dx="1485" dy="880" grid="1" gridSize="10" guides="1" tooltips="1" connect="1" arrows="1" fold="1" page="1" pageScale="1" pageWidth="2339" pageHeight="3300" math="0" shadow="0">
      <root>
        <mxCell id="0" />
        <mxCell id="1" parent="0" />
        <mxCell id="8GqYznMR8qY1mV8h57Qq-22" value="" style="rounded=0;whiteSpace=wrap;html=1;" parent="1" vertex="1">
          <mxGeometry x="480" y="120" width="480" height="170" as="geometry" />
        </mxCell>
        <mxCell id="8GqYznMR8qY1mV8h57Qq-1" value="&lt;font style=&quot;font-size: 16px;&quot;&gt;Overview of Solution Architecture&amp;nbsp;&lt;/font&gt;" style="text;html=1;align=center;verticalAlign=middle;whiteSpace=wrap;rounded=0;fontStyle=1" parent="1" vertex="1">
          <mxGeometry x="550" y="40" width="340" height="30" as="geometry" />
        </mxCell>
        <mxCell id="8GqYznMR8qY1mV8h57Qq-16" style="edgeStyle=orthogonalEdgeStyle;rounded=0;orthogonalLoop=1;jettySize=auto;html=1;exitX=1;exitY=0.5;exitDx=0;exitDy=0;entryX=0;entryY=0.5;entryDx=0;entryDy=0;fontStyle=1" parent="1" source="8GqYznMR8qY1mV8h57Qq-2" target="8GqYznMR8qY1mV8h57Qq-3" edge="1">
          <mxGeometry relative="1" as="geometry" />
        </mxCell>
        <mxCell id="8GqYznMR8qY1mV8h57Qq-2" value="Raw VAERS csv data" style="rounded=1;whiteSpace=wrap;html=1;fillColor=#f5f5f5;fontColor=#333333;strokeColor=#666666;fontStyle=1" parent="1" vertex="1">
          <mxGeometry x="70" y="170" width="100" height="60" as="geometry" />
        </mxCell>
        <mxCell id="8GqYznMR8qY1mV8h57Qq-17" style="edgeStyle=orthogonalEdgeStyle;rounded=0;orthogonalLoop=1;jettySize=auto;html=1;exitX=1;exitY=0.5;exitDx=0;exitDy=0;entryX=0;entryY=0.5;entryDx=0;entryDy=0;fontStyle=1" parent="1" source="8GqYznMR8qY1mV8h57Qq-3" target="8GqYznMR8qY1mV8h57Qq-4" edge="1">
          <mxGeometry relative="1" as="geometry" />
        </mxCell>
        <mxCell id="8GqYznMR8qY1mV8h57Qq-3" value="&amp;nbsp;Filtering and EDA" style="rounded=1;whiteSpace=wrap;html=1;fillColor=#d5e8d4;strokeColor=#82b366;fontStyle=1" parent="1" vertex="1">
          <mxGeometry x="200" y="170" width="120" height="60" as="geometry" />
        </mxCell>
        <mxCell id="8GqYznMR8qY1mV8h57Qq-18" style="edgeStyle=orthogonalEdgeStyle;rounded=0;orthogonalLoop=1;jettySize=auto;html=1;exitX=1;exitY=0.5;exitDx=0;exitDy=0;entryX=0;entryY=0.5;entryDx=0;entryDy=0;" parent="1" source="8GqYznMR8qY1mV8h57Qq-4" target="8GqYznMR8qY1mV8h57Qq-5" edge="1">
          <mxGeometry relative="1" as="geometry" />
        </mxCell>
        <mxCell id="8GqYznMR8qY1mV8h57Qq-4" value="GOLD annotations&amp;nbsp;and Weak Supervision" style="rounded=1;whiteSpace=wrap;html=1;fillColor=#fff2cc;gradientColor=#ffd966;strokeColor=#d6b656;fontStyle=1" parent="1" vertex="1">
          <mxGeometry x="350" y="170" width="120" height="60" as="geometry" />
        </mxCell>
        <mxCell id="8GqYznMR8qY1mV8h57Qq-19" style="edgeStyle=orthogonalEdgeStyle;rounded=0;orthogonalLoop=1;jettySize=auto;html=1;exitX=1;exitY=0.5;exitDx=0;exitDy=0;entryX=0;entryY=0.5;entryDx=0;entryDy=0;" parent="1" source="8GqYznMR8qY1mV8h57Qq-5" target="8GqYznMR8qY1mV8h57Qq-12" edge="1">
          <mxGeometry relative="1" as="geometry" />
        </mxCell>
        <mxCell id="8GqYznMR8qY1mV8h57Qq-5" value="NER Model tranining&amp;nbsp;" style="rounded=0;whiteSpace=wrap;html=1;fillColor=#fad7ac;strokeColor=#b46504;fontStyle=1" parent="1" vertex="1">
          <mxGeometry x="500" y="170" width="120" height="60" as="geometry" />
        </mxCell>
        <mxCell id="8GqYznMR8qY1mV8h57Qq-20" style="edgeStyle=orthogonalEdgeStyle;rounded=0;orthogonalLoop=1;jettySize=auto;html=1;exitX=1;exitY=0.5;exitDx=0;exitDy=0;entryX=0;entryY=0.5;entryDx=0;entryDy=0;" parent="1" source="8GqYznMR8qY1mV8h57Qq-12" target="8GqYznMR8qY1mV8h57Qq-13" edge="1">
          <mxGeometry relative="1" as="geometry" />
        </mxCell>
        <mxCell id="8GqYznMR8qY1mV8h57Qq-12" value="Clustering&amp;nbsp;" style="ellipse;whiteSpace=wrap;html=1;fillColor=#fad7ac;strokeColor=#b46504;fontStyle=1" parent="1" vertex="1">
          <mxGeometry x="660" y="160" width="120" height="80" as="geometry" />
        </mxCell>
        <mxCell id="8GqYznMR8qY1mV8h57Qq-21" style="edgeStyle=orthogonalEdgeStyle;rounded=0;orthogonalLoop=1;jettySize=auto;html=1;exitX=1;exitY=0.5;exitDx=0;exitDy=0;entryX=0;entryY=0.5;entryDx=0;entryDy=0;" parent="1" source="8GqYznMR8qY1mV8h57Qq-13" target="8GqYznMR8qY1mV8h57Qq-14" edge="1">
          <mxGeometry relative="1" as="geometry" />
        </mxCell>
        <mxCell id="8GqYznMR8qY1mV8h57Qq-13" value="Determine Severity" style="ellipse;whiteSpace=wrap;html=1;fillColor=#fad7ac;strokeColor=#b46504;fontStyle=1" parent="1" vertex="1">
          <mxGeometry x="820" y="160" width="120" height="80" as="geometry" />
        </mxCell>
        <mxCell id="JhJwBfjX3yIoy57ChDbd-3" style="edgeStyle=orthogonalEdgeStyle;rounded=0;orthogonalLoop=1;jettySize=auto;html=1;exitX=1;exitY=0.5;exitDx=0;exitDy=0;entryX=0;entryY=0.5;entryDx=0;entryDy=0;" edge="1" parent="1" source="8GqYznMR8qY1mV8h57Qq-14" target="JhJwBfjX3yIoy57ChDbd-2">
          <mxGeometry relative="1" as="geometry" />
        </mxCell>
        <mxCell id="8GqYznMR8qY1mV8h57Qq-14" value="XAI (SHAP)" style="rounded=1;whiteSpace=wrap;html=1;fillColor=#b0e3e6;strokeColor=#0e8088;fontStyle=1" parent="1" vertex="1">
          <mxGeometry x="1000" y="170" width="120" height="60" as="geometry" />
        </mxCell>
        <mxCell id="8GqYznMR8qY1mV8h57Qq-15" value="&lt;font style=&quot;font-size: 15px;&quot;&gt;Overview of System Architecture&amp;nbsp;&lt;/font&gt;" style="text;html=1;align=center;verticalAlign=middle;whiteSpace=wrap;rounded=0;fontStyle=1" parent="1" vertex="1">
          <mxGeometry x="590" y="350" width="260" height="30" as="geometry" />
        </mxCell>
        <mxCell id="zbMN7r8sNW95JLY6jyRE-2" value="&lt;span style=&quot;font-weight: normal;&quot;&gt;Joined using&lt;/span&gt; VAERS_ID &lt;span style=&quot;font-weight: normal;&quot;&gt;and&lt;/span&gt; ORDER &lt;span style=&quot;font-weight: normal;&quot;&gt;columns&lt;/span&gt;" style="text;html=1;align=center;verticalAlign=middle;whiteSpace=wrap;rounded=0;fontStyle=1;fontSize=14;" parent="1" vertex="1">
          <mxGeometry x="450" y="965" width="150" height="30" as="geometry" />
        </mxCell>
        <mxCell id="zbMN7r8sNW95JLY6jyRE-3" value="&lt;font style=&quot;font-size: 18px;&quot;&gt;Dataset Prep&lt;/font&gt;" style="text;html=1;align=center;verticalAlign=middle;whiteSpace=wrap;rounded=0;fontStyle=1" parent="1" vertex="1">
          <mxGeometry x="1110" y="660" width="150" height="30" as="geometry" />
        </mxCell>
        <mxCell id="zbMN7r8sNW95JLY6jyRE-4" value="" style="rounded=0;whiteSpace=wrap;html=1;fillColor=#ffe6cc;strokeColor=#d79b00;" parent="1" vertex="1">
          <mxGeometry x="660" y="760" width="230" height="170" as="geometry" />
        </mxCell>
        <mxCell id="zbMN7r8sNW95JLY6jyRE-5" value="2020VAERSDATA" style="rounded=1;whiteSpace=wrap;html=1;fontSize=14;" parent="1" vertex="1">
          <mxGeometry x="690" y="780" width="170" height="30" as="geometry" />
        </mxCell>
        <mxCell id="zbMN7r8sNW95JLY6jyRE-6" value="2020VAERSSYMPTOMS" style="rounded=1;whiteSpace=wrap;html=1;fontSize=14;" parent="1" vertex="1">
          <mxGeometry x="690" y="830" width="170" height="30" as="geometry" />
        </mxCell>
        <mxCell id="zbMN7r8sNW95JLY6jyRE-7" value="2020VAERSVAX" style="rounded=1;whiteSpace=wrap;html=1;" parent="1" vertex="1">
          <mxGeometry x="690" y="880" width="170" height="30" as="geometry" />
        </mxCell>
        <mxCell id="zbMN7r8sNW95JLY6jyRE-8" value="" style="rounded=0;whiteSpace=wrap;html=1;fillColor=#ffe6cc;strokeColor=#d79b00;" parent="1" vertex="1">
          <mxGeometry x="660" y="1040" width="230" height="170" as="geometry" />
        </mxCell>
        <mxCell id="zbMN7r8sNW95JLY6jyRE-9" value="2025VAERSDATA" style="rounded=1;whiteSpace=wrap;html=1;fontSize=14;" parent="1" vertex="1">
          <mxGeometry x="690" y="1060" width="170" height="30" as="geometry" />
        </mxCell>
        <mxCell id="zbMN7r8sNW95JLY6jyRE-10" value="2025VAERSSYMPTOMS" style="rounded=1;whiteSpace=wrap;html=1;fontSize=14;" parent="1" vertex="1">
          <mxGeometry x="690" y="1110" width="170" height="30" as="geometry" />
        </mxCell>
        <mxCell id="zbMN7r8sNW95JLY6jyRE-11" value="2025VAERSVAX" style="rounded=1;whiteSpace=wrap;html=1;fontSize=14;" parent="1" vertex="1">
          <mxGeometry x="690" y="1160" width="170" height="30" as="geometry" />
        </mxCell>
        <mxCell id="zbMN7r8sNW95JLY6jyRE-12" value="" style="rounded=0;whiteSpace=wrap;html=1;fillColor=#b0e3e6;strokeColor=#0e8088;" parent="1" vertex="1">
          <mxGeometry x="1040" y="940" width="170" height="70" as="geometry" />
        </mxCell>
        <mxCell id="zbMN7r8sNW95JLY6jyRE-17" style="edgeStyle=orthogonalEdgeStyle;rounded=0;orthogonalLoop=1;jettySize=auto;html=1;exitX=1;exitY=0.5;exitDx=0;exitDy=0;entryX=0;entryY=0.5;entryDx=0;entryDy=0;" parent="1" source="zbMN7r8sNW95JLY6jyRE-4" target="zbMN7r8sNW95JLY6jyRE-12" edge="1">
          <mxGeometry relative="1" as="geometry">
            <mxPoint x="1000" y="845" as="targetPoint" />
          </mxGeometry>
        </mxCell>
        <mxCell id="zbMN7r8sNW95JLY6jyRE-18" style="edgeStyle=orthogonalEdgeStyle;rounded=0;orthogonalLoop=1;jettySize=auto;html=1;exitX=1;exitY=0.5;exitDx=0;exitDy=0;entryX=0;entryY=0.5;entryDx=0;entryDy=0;" parent="1" source="zbMN7r8sNW95JLY6jyRE-8" target="zbMN7r8sNW95JLY6jyRE-12" edge="1">
          <mxGeometry relative="1" as="geometry" />
        </mxCell>
        <mxCell id="zbMN7r8sNW95JLY6jyRE-19" value="" style="endArrow=none;dashed=1;html=1;dashPattern=1 3;strokeWidth=2;rounded=0;" parent="1" edge="1">
          <mxGeometry width="50" height="50" relative="1" as="geometry">
            <mxPoint x="780" y="1030" as="sourcePoint" />
            <mxPoint x="780" y="940" as="targetPoint" />
          </mxGeometry>
        </mxCell>
        <mxCell id="zbMN7r8sNW95JLY6jyRE-20" value="2021" style="text;html=1;align=center;verticalAlign=middle;whiteSpace=wrap;rounded=0;fontStyle=1" parent="1" vertex="1">
          <mxGeometry x="680" y="940" width="150" height="30" as="geometry" />
        </mxCell>
        <mxCell id="zbMN7r8sNW95JLY6jyRE-21" value="2023" style="text;html=1;align=center;verticalAlign=middle;whiteSpace=wrap;rounded=0;fontStyle=1" parent="1" vertex="1">
          <mxGeometry x="680" y="980" width="150" height="30" as="geometry" />
        </mxCell>
        <mxCell id="zbMN7r8sNW95JLY6jyRE-22" value="2024" style="text;html=1;align=center;verticalAlign=middle;whiteSpace=wrap;rounded=0;fontStyle=1" parent="1" vertex="1">
          <mxGeometry x="680" y="1000" width="150" height="30" as="geometry" />
        </mxCell>
        <mxCell id="zbMN7r8sNW95JLY6jyRE-23" value="2022" style="text;html=1;align=center;verticalAlign=middle;whiteSpace=wrap;rounded=0;fontStyle=1" parent="1" vertex="1">
          <mxGeometry x="680" y="960" width="150" height="30" as="geometry" />
        </mxCell>
        <mxCell id="zbMN7r8sNW95JLY6jyRE-24" value="" style="shape=curlyBracket;whiteSpace=wrap;html=1;rounded=1;labelPosition=left;verticalLabelPosition=middle;align=right;verticalAlign=middle;" parent="1" vertex="1">
          <mxGeometry x="610" y="780" width="20" height="420" as="geometry" />
        </mxCell>
        <mxCell id="Hu1slZ-yJvWduNXZZubZ-3" style="edgeStyle=orthogonalEdgeStyle;rounded=0;orthogonalLoop=1;jettySize=auto;html=1;exitX=1;exitY=0.5;exitDx=0;exitDy=0;entryX=0;entryY=0.5;entryDx=0;entryDy=0;" parent="1" source="zbMN7r8sNW95JLY6jyRE-25" target="Hu1slZ-yJvWduNXZZubZ-1" edge="1">
          <mxGeometry relative="1" as="geometry" />
        </mxCell>
        <mxCell id="zbMN7r8sNW95JLY6jyRE-25" value="" style="rounded=0;whiteSpace=wrap;html=1;fillColor=#b0e3e6;strokeColor=#0e8088;" parent="1" vertex="1">
          <mxGeometry x="1260" y="940" width="170" height="70" as="geometry" />
        </mxCell>
        <mxCell id="zbMN7r8sNW95JLY6jyRE-26" value="&lt;span style=&quot;font-weight: 700;&quot;&gt;&lt;font style=&quot;font-size: 16px;&quot;&gt;vaers_all&lt;/font&gt;&lt;/span&gt;" style="rounded=0;whiteSpace=wrap;html=1;" parent="1" vertex="1">
          <mxGeometry x="1290" y="955" width="110" height="40" as="geometry" />
        </mxCell>
        <mxCell id="zbMN7r8sNW95JLY6jyRE-28" style="edgeStyle=orthogonalEdgeStyle;rounded=0;orthogonalLoop=1;jettySize=auto;html=1;exitX=1;exitY=0.5;exitDx=0;exitDy=0;entryX=0;entryY=0.5;entryDx=0;entryDy=0;" parent="1" source="zbMN7r8sNW95JLY6jyRE-27" target="zbMN7r8sNW95JLY6jyRE-25" edge="1">
          <mxGeometry relative="1" as="geometry" />
        </mxCell>
        <mxCell id="zbMN7r8sNW95JLY6jyRE-27" value="&lt;font style=&quot;font-size: 15px;&quot;&gt;Filter for COVID records&lt;/font&gt;" style="text;html=1;align=center;verticalAlign=middle;whiteSpace=wrap;rounded=0;fontStyle=1" parent="1" vertex="1">
          <mxGeometry x="1050" y="960" width="150" height="30" as="geometry" />
        </mxCell>
        <mxCell id="DPI5E3BmcHEmSRN2p2Tb-4" style="edgeStyle=orthogonalEdgeStyle;rounded=0;orthogonalLoop=1;jettySize=auto;html=1;exitX=1;exitY=0.5;exitDx=0;exitDy=0;entryX=0;entryY=0.5;entryDx=0;entryDy=0;" parent="1" source="Hu1slZ-yJvWduNXZZubZ-1" target="DPI5E3BmcHEmSRN2p2Tb-2" edge="1">
          <mxGeometry relative="1" as="geometry" />
        </mxCell>
        <mxCell id="Hu1slZ-yJvWduNXZZubZ-1" value="" style="rounded=0;whiteSpace=wrap;html=1;fillColor=#b0e3e6;strokeColor=#0e8088;" parent="1" vertex="1">
          <mxGeometry x="1490" y="940" width="220" height="70" as="geometry" />
        </mxCell>
        <mxCell id="Hu1slZ-yJvWduNXZZubZ-2" value="&lt;span style=&quot;font-size: 16px;&quot;&gt;&lt;b&gt;vaers_all_to_annotate&lt;/b&gt;&lt;/span&gt;" style="rounded=0;whiteSpace=wrap;html=1;" parent="1" vertex="1">
          <mxGeometry x="1510" y="955" width="180" height="40" as="geometry" />
        </mxCell>
        <mxCell id="Hu1slZ-yJvWduNXZZubZ-4" value="&lt;div style=&quot;text-align: justify;&quot;&gt;&lt;span style=&quot;font-size: 14px; background-color: transparent; color: light-dark(rgb(0, 0, 0), rgb(255, 255, 255)); font-weight: normal;&quot;&gt;Filtered for only&lt;/span&gt;&lt;span style=&quot;font-size: 14px; background-color: transparent; color: light-dark(rgb(0, 0, 0), rgb(255, 255, 255));&quot;&gt; &#39;VAERS_ID&#39; &lt;/span&gt;&lt;span style=&quot;font-size: 14px; background-color: transparent; color: light-dark(rgb(0, 0, 0), rgb(255, 255, 255)); font-weight: normal;&quot;&gt;and&lt;/span&gt;&lt;span style=&quot;font-size: 14px; background-color: transparent; color: light-dark(rgb(0, 0, 0), rgb(255, 255, 255));&quot;&gt; &#39;SYMPTOM_TEXT&#39; &lt;/span&gt;&lt;span style=&quot;font-size: 14px; background-color: transparent; color: light-dark(rgb(0, 0, 0), rgb(255, 255, 255)); font-weight: normal;&quot;&gt;for&lt;/span&gt;&lt;span style=&quot;font-size: 14px; background-color: transparent; color: light-dark(rgb(0, 0, 0), rgb(255, 255, 255));&quot;&gt; GOLD Annotations.&lt;/span&gt;&lt;/div&gt;&lt;div style=&quot;text-align: left;&quot;&gt;&lt;font style=&quot;font-size: 14px;&quot;&gt;&lt;br&gt;&lt;/font&gt;&lt;/div&gt;&lt;div style=&quot;text-align: left;&quot;&gt;&lt;span style=&quot;font-weight: normal;&quot;&gt;&lt;font style=&quot;font-size: 14px;&quot;&gt;NA in&amp;nbsp;&lt;/font&gt;&lt;span style=&quot;font-size: 14px; background-color: transparent; color: light-dark(rgb(0, 0, 0), rgb(255, 255, 255));&quot;&gt;&#39;SYMPTOM_TEXT&#39; are dropped.&lt;/span&gt;&lt;/span&gt;&lt;/div&gt;&lt;div style=&quot;text-align: left;&quot;&gt;&lt;span style=&quot;font-weight: normal;&quot;&gt;&lt;span style=&quot;font-size: 14px; background-color: transparent; color: light-dark(rgb(0, 0, 0), rgb(255, 255, 255));&quot;&gt;&lt;br&gt;&lt;/span&gt;&lt;/span&gt;&lt;/div&gt;&lt;div style=&quot;text-align: left;&quot;&gt;&lt;span style=&quot;font-size: 14px; font-weight: 400;&quot;&gt;Randomly filtered 500 records for annotations&lt;/span&gt;&lt;/div&gt;" style="text;html=1;align=center;verticalAlign=middle;whiteSpace=wrap;rounded=0;fontStyle=1" parent="1" vertex="1">
          <mxGeometry x="1490" y="1080" width="220" height="30" as="geometry" />
        </mxCell>
        <mxCell id="Hu1slZ-yJvWduNXZZubZ-6" value="Records that have values in &#39;VAX_TYPE&#39;  = COVID 19 &amp; COVID 19 2 " style="text;whiteSpace=wrap;align=center;fontSize=14;" parent="1" vertex="1">
          <mxGeometry x="992.5" y="890" width="267.5" height="40" as="geometry" />
        </mxCell>
        <mxCell id="DPI5E3BmcHEmSRN2p2Tb-2" value="" style="rounded=0;whiteSpace=wrap;html=1;fillColor=#fff2cc;strokeColor=#d6b656;" parent="1" vertex="1">
          <mxGeometry x="1760" y="940" width="220" height="70" as="geometry" />
        </mxCell>
        <mxCell id="DPI5E3BmcHEmSRN2p2Tb-3" value="&lt;span style=&quot;font-size: 16px;&quot;&gt;&lt;b&gt;vaers_gold_annotated&lt;/b&gt;&lt;/span&gt;" style="rounded=0;whiteSpace=wrap;html=1;" parent="1" vertex="1">
          <mxGeometry x="1780" y="955" width="180" height="40" as="geometry" />
        </mxCell>
        <mxCell id="SyE5c-8Gou2E386hBkov-1" value="&lt;span style=&quot;font-size: 18px;&quot;&gt;Weak Supervision Pipelines&lt;/span&gt;" style="text;html=1;align=center;verticalAlign=middle;whiteSpace=wrap;rounded=0;fontStyle=1" parent="1" vertex="1">
          <mxGeometry x="565" y="1320" width="290" height="30" as="geometry" />
        </mxCell>
        <mxCell id="B4wsTult83z3MiqoB-Mg-3" style="edgeStyle=orthogonalEdgeStyle;rounded=0;orthogonalLoop=1;jettySize=auto;html=1;exitX=1;exitY=0.5;exitDx=0;exitDy=0;entryX=0;entryY=0.5;entryDx=0;entryDy=0;" parent="1" source="SyE5c-8Gou2E386hBkov-2" target="B4wsTult83z3MiqoB-Mg-2" edge="1">
          <mxGeometry relative="1" as="geometry" />
        </mxCell>
        <mxCell id="SyE5c-8Gou2E386hBkov-2" value="EDA on the GOLD Annotations" style="rounded=0;whiteSpace=wrap;html=1;fontSize=15;fillColor=#dae8fc;strokeColor=#6c8ebf;" parent="1" vertex="1">
          <mxGeometry x="240" y="1510" width="120" height="60" as="geometry" />
        </mxCell>
        <mxCell id="SyE5c-8Gou2E386hBkov-10" style="edgeStyle=orthogonalEdgeStyle;rounded=0;orthogonalLoop=1;jettySize=auto;html=1;exitX=1;exitY=0.5;exitDx=0;exitDy=0;entryX=0;entryY=0.5;entryDx=0;entryDy=0;" parent="1" source="SyE5c-8Gou2E386hBkov-3" target="SyE5c-8Gou2E386hBkov-9" edge="1">
          <mxGeometry relative="1" as="geometry" />
        </mxCell>
        <mxCell id="SyE5c-8Gou2E386hBkov-3" value="Regex Labelling Functions" style="rounded=0;whiteSpace=wrap;html=1;fontSize=15;fillColor=#d5e8d4;strokeColor=#82b366;" parent="1" vertex="1">
          <mxGeometry x="650" y="1410" width="120" height="60" as="geometry" />
        </mxCell>
        <mxCell id="SyE5c-8Gou2E386hBkov-11" style="edgeStyle=orthogonalEdgeStyle;rounded=0;orthogonalLoop=1;jettySize=auto;html=1;exitX=1;exitY=0.5;exitDx=0;exitDy=0;entryX=0;entryY=0.5;entryDx=0;entryDy=0;" parent="1" source="SyE5c-8Gou2E386hBkov-4" target="SyE5c-8Gou2E386hBkov-9" edge="1">
          <mxGeometry relative="1" as="geometry" />
        </mxCell>
        <mxCell id="SyE5c-8Gou2E386hBkov-4" value="Zero Shot using LLMs" style="rounded=0;whiteSpace=wrap;html=1;fontSize=15;fillColor=#d5e8d4;strokeColor=#82b366;" parent="1" vertex="1">
          <mxGeometry x="650" y="1510" width="120" height="60" as="geometry" />
        </mxCell>
        <mxCell id="SyE5c-8Gou2E386hBkov-12" style="edgeStyle=orthogonalEdgeStyle;rounded=0;orthogonalLoop=1;jettySize=auto;html=1;exitX=1;exitY=0.5;exitDx=0;exitDy=0;entryX=0;entryY=0.5;entryDx=0;entryDy=0;" parent="1" source="SyE5c-8Gou2E386hBkov-5" target="SyE5c-8Gou2E386hBkov-9" edge="1">
          <mxGeometry relative="1" as="geometry" />
        </mxCell>
        <mxCell id="SyE5c-8Gou2E386hBkov-5" value="Train a baseline NER model with annotated records" style="rounded=0;whiteSpace=wrap;html=1;fontSize=13;fillColor=#d5e8d4;strokeColor=#82b366;" parent="1" vertex="1">
          <mxGeometry x="650" y="1620" width="120" height="60" as="geometry" />
        </mxCell>
        <mxCell id="SyE5c-8Gou2E386hBkov-17" style="edgeStyle=orthogonalEdgeStyle;rounded=0;orthogonalLoop=1;jettySize=auto;html=1;exitX=1;exitY=0.5;exitDx=0;exitDy=0;entryX=0;entryY=0.5;entryDx=0;entryDy=0;" parent="1" source="SyE5c-8Gou2E386hBkov-9" target="SyE5c-8Gou2E386hBkov-16" edge="1">
          <mxGeometry relative="1" as="geometry" />
        </mxCell>
        <mxCell id="SyE5c-8Gou2E386hBkov-9" value="Combination of results" style="rounded=0;whiteSpace=wrap;html=1;fontSize=15;fillColor=#f8cecc;strokeColor=#b85450;" parent="1" vertex="1">
          <mxGeometry x="910" y="1510" width="120" height="60" as="geometry" />
        </mxCell>
        <mxCell id="SyE5c-8Gou2E386hBkov-13" value="Supervision Source 1" style="text;html=1;align=center;verticalAlign=middle;whiteSpace=wrap;rounded=0;fontStyle=1" parent="1" vertex="1">
          <mxGeometry x="645" y="1380" width="130" height="30" as="geometry" />
        </mxCell>
        <mxCell id="SyE5c-8Gou2E386hBkov-14" value="Supervision Source 2" style="text;html=1;align=center;verticalAlign=middle;whiteSpace=wrap;rounded=0;fontStyle=1" parent="1" vertex="1">
          <mxGeometry x="645" y="1480" width="130" height="30" as="geometry" />
        </mxCell>
        <mxCell id="SyE5c-8Gou2E386hBkov-15" value="Supervision Source 3" style="text;html=1;align=center;verticalAlign=middle;whiteSpace=wrap;rounded=0;fontStyle=1" parent="1" vertex="1">
          <mxGeometry x="645" y="1590" width="130" height="30" as="geometry" />
        </mxCell>
        <mxCell id="SyE5c-8Gou2E386hBkov-16" value="Evaluation of annotations" style="rounded=0;whiteSpace=wrap;html=1;fontSize=15;fillColor=#f8cecc;strokeColor=#b85450;" parent="1" vertex="1">
          <mxGeometry x="1090" y="1510" width="120" height="60" as="geometry" />
        </mxCell>
        <mxCell id="Mi4fmV9KIByH30RvGFHp-1" value="&lt;span style=&quot;font-size: 18px;&quot;&gt;NER Pipeline&lt;/span&gt;" style="text;html=1;align=center;verticalAlign=middle;whiteSpace=wrap;rounded=0;fontStyle=1" parent="1" vertex="1">
          <mxGeometry x="645" y="1720" width="290" height="30" as="geometry" />
        </mxCell>
        <mxCell id="Mi4fmV9KIByH30RvGFHp-6" style="edgeStyle=orthogonalEdgeStyle;rounded=0;orthogonalLoop=1;jettySize=auto;html=1;exitX=1;exitY=0.5;exitDx=0;exitDy=0;entryX=0;entryY=0.5;entryDx=0;entryDy=0;" parent="1" source="Mi4fmV9KIByH30RvGFHp-2" target="Mi4fmV9KIByH30RvGFHp-3" edge="1">
          <mxGeometry relative="1" as="geometry" />
        </mxCell>
        <mxCell id="Mi4fmV9KIByH30RvGFHp-2" value="&lt;font style=&quot;font-size: 13px;&quot;&gt;Completely annotated records (2020 to 2025)&lt;/font&gt;" style="rounded=0;whiteSpace=wrap;html=1;fontSize=15;fillColor=#dae8fc;strokeColor=#6c8ebf;" parent="1" vertex="1">
          <mxGeometry x="380" y="1840" width="120" height="60" as="geometry" />
        </mxCell>
        <mxCell id="Mi4fmV9KIByH30RvGFHp-7" style="edgeStyle=orthogonalEdgeStyle;rounded=0;orthogonalLoop=1;jettySize=auto;html=1;exitX=1;exitY=0.5;exitDx=0;exitDy=0;entryX=0;entryY=0.5;entryDx=0;entryDy=0;" parent="1" source="Mi4fmV9KIByH30RvGFHp-3" target="Mi4fmV9KIByH30RvGFHp-4" edge="1">
          <mxGeometry relative="1" as="geometry" />
        </mxCell>
        <mxCell id="Mi4fmV9KIByH30RvGFHp-3" value="Preprocessing the text" style="rounded=0;whiteSpace=wrap;html=1;fontSize=15;fillColor=#dae8fc;strokeColor=#6c8ebf;" parent="1" vertex="1">
          <mxGeometry x="540" y="1840" width="120" height="60" as="geometry" />
        </mxCell>
        <mxCell id="Mi4fmV9KIByH30RvGFHp-21" style="edgeStyle=orthogonalEdgeStyle;rounded=0;orthogonalLoop=1;jettySize=auto;html=1;exitX=1;exitY=0.5;exitDx=0;exitDy=0;entryX=0;entryY=0.5;entryDx=0;entryDy=0;" parent="1" source="Mi4fmV9KIByH30RvGFHp-4" target="Mi4fmV9KIByH30RvGFHp-11" edge="1">
          <mxGeometry relative="1" as="geometry" />
        </mxCell>
        <mxCell id="Mi4fmV9KIByH30RvGFHp-4" value="GLiNER Bio Model" style="rounded=0;whiteSpace=wrap;html=1;fontSize=15;fillColor=#e1d5e7;strokeColor=#9673a6;" parent="1" vertex="1">
          <mxGeometry x="715" y="1790" width="120" height="60" as="geometry" />
        </mxCell>
        <mxCell id="Mi4fmV9KIByH30RvGFHp-22" style="edgeStyle=orthogonalEdgeStyle;rounded=0;orthogonalLoop=1;jettySize=auto;html=1;exitX=1;exitY=0.5;exitDx=0;exitDy=0;entryX=0;entryY=0.5;entryDx=0;entryDy=0;" parent="1" source="Mi4fmV9KIByH30RvGFHp-5" target="Mi4fmV9KIByH30RvGFHp-11" edge="1">
          <mxGeometry relative="1" as="geometry" />
        </mxCell>
        <mxCell id="Mi4fmV9KIByH30RvGFHp-5" value="BioBERT" style="rounded=0;whiteSpace=wrap;html=1;fontSize=15;fillColor=#e1d5e7;strokeColor=#9673a6;" parent="1" vertex="1">
          <mxGeometry x="715" y="1890" width="120" height="60" as="geometry" />
        </mxCell>
        <mxCell id="Mi4fmV9KIByH30RvGFHp-8" style="edgeStyle=orthogonalEdgeStyle;rounded=0;orthogonalLoop=1;jettySize=auto;html=1;exitX=1;exitY=0.5;exitDx=0;exitDy=0;entryX=0;entryY=0.5;entryDx=0;entryDy=0;" parent="1" source="Mi4fmV9KIByH30RvGFHp-3" target="Mi4fmV9KIByH30RvGFHp-5" edge="1">
          <mxGeometry relative="1" as="geometry" />
        </mxCell>
        <mxCell id="Mi4fmV9KIByH30RvGFHp-9" value="By Age" style="text;html=1;align=center;verticalAlign=middle;whiteSpace=wrap;rounded=0;fontStyle=1" parent="1" vertex="1">
          <mxGeometry x="630" y="140" width="60" height="30" as="geometry" />
        </mxCell>
        <mxCell id="Mi4fmV9KIByH30RvGFHp-23" style="edgeStyle=orthogonalEdgeStyle;rounded=0;orthogonalLoop=1;jettySize=auto;html=1;exitX=1;exitY=0.5;exitDx=0;exitDy=0;entryX=0;entryY=0.5;entryDx=0;entryDy=0;" parent="1" source="Mi4fmV9KIByH30RvGFHp-11" target="Mi4fmV9KIByH30RvGFHp-12" edge="1">
          <mxGeometry relative="1" as="geometry" />
        </mxCell>
        <mxCell id="Mi4fmV9KIByH30RvGFHp-11" value="Collect all predictions for ADE and DRUG" style="rounded=0;whiteSpace=wrap;html=1;fillColor=#f8cecc;strokeColor=#b85450;" parent="1" vertex="1">
          <mxGeometry x="880" y="1840" width="120" height="60" as="geometry" />
        </mxCell>
        <mxCell id="Mi4fmV9KIByH30RvGFHp-24" style="edgeStyle=orthogonalEdgeStyle;rounded=0;orthogonalLoop=1;jettySize=auto;html=1;exitX=1;exitY=0.5;exitDx=0;exitDy=0;entryX=0;entryY=0.5;entryDx=0;entryDy=0;" parent="1" source="Mi4fmV9KIByH30RvGFHp-12" target="Mi4fmV9KIByH30RvGFHp-13" edge="1">
          <mxGeometry relative="1" as="geometry" />
        </mxCell>
        <mxCell id="Mi4fmV9KIByH30RvGFHp-12" value="Evaluate and optimize" style="rounded=0;whiteSpace=wrap;html=1;fillColor=#f8cecc;strokeColor=#b85450;" parent="1" vertex="1">
          <mxGeometry x="1030" y="1840" width="120" height="60" as="geometry" />
        </mxCell>
        <mxCell id="Mi4fmV9KIByH30RvGFHp-18" style="edgeStyle=orthogonalEdgeStyle;rounded=0;orthogonalLoop=1;jettySize=auto;html=1;exitX=0.5;exitY=0;exitDx=0;exitDy=0;" parent="1" source="Mi4fmV9KIByH30RvGFHp-13" target="Mi4fmV9KIByH30RvGFHp-15" edge="1">
          <mxGeometry relative="1" as="geometry" />
        </mxCell>
        <mxCell id="Mi4fmV9KIByH30RvGFHp-19" style="edgeStyle=orthogonalEdgeStyle;rounded=0;orthogonalLoop=1;jettySize=auto;html=1;exitX=0.5;exitY=0;exitDx=0;exitDy=0;entryX=0.5;entryY=1;entryDx=0;entryDy=0;" parent="1" source="Mi4fmV9KIByH30RvGFHp-13" target="Mi4fmV9KIByH30RvGFHp-14" edge="1">
          <mxGeometry relative="1" as="geometry" />
        </mxCell>
        <mxCell id="Mi4fmV9KIByH30RvGFHp-20" style="edgeStyle=orthogonalEdgeStyle;rounded=0;orthogonalLoop=1;jettySize=auto;html=1;exitX=0.5;exitY=1;exitDx=0;exitDy=0;entryX=0.5;entryY=0;entryDx=0;entryDy=0;" parent="1" source="Mi4fmV9KIByH30RvGFHp-13" target="Mi4fmV9KIByH30RvGFHp-16" edge="1">
          <mxGeometry relative="1" as="geometry" />
        </mxCell>
        <mxCell id="ExIGtKoXuSOmTHukUmNq-3" style="edgeStyle=orthogonalEdgeStyle;rounded=0;orthogonalLoop=1;jettySize=auto;html=1;exitX=0.5;exitY=1;exitDx=0;exitDy=0;entryX=0.25;entryY=0;entryDx=0;entryDy=0;" parent="1" source="Mi4fmV9KIByH30RvGFHp-13" target="ExIGtKoXuSOmTHukUmNq-1" edge="1">
          <mxGeometry relative="1" as="geometry" />
        </mxCell>
        <mxCell id="Mi4fmV9KIByH30RvGFHp-13" value="&lt;span class=&quot;NormalTextRun SCXW152208866 BCX0&quot; style=&quot;box-sizing: border-box; border: 0px solid; margin: 0px; padding: 0px; color: rgb(0, 0, 0); font-family: Manrope, sans-serif; font-style: normal; font-variant-ligatures: normal; font-variant-caps: normal; font-weight: 400; letter-spacing: normal; orphans: 2; text-align: left; text-indent: 0px; text-transform: none; widows: 2; word-spacing: 0px; -webkit-text-stroke-width: 0px; white-space: normal; text-decoration-thickness: initial; text-decoration-style: initial; text-decoration-color: initial;&quot;&gt;Group ADE symptoms based on modifiers (mild/&lt;/span&gt;&lt;span class=&quot;NormalTextRun SCXW152208866 BCX0&quot; style=&quot;box-sizing: border-box; border: 0px solid; margin: 0px; padding: 0px; color: rgb(0, 0, 0); font-family: Manrope, sans-serif; font-style: normal; font-variant-ligatures: normal; font-variant-caps: normal; font-weight: 400; letter-spacing: normal; orphans: 2; text-align: left; text-indent: 0px; text-transform: none; widows: 2; word-spacing: 0px; -webkit-text-stroke-width: 0px; white-space: normal; text-decoration-thickness: initial; text-decoration-style: initial; text-decoration-color: initial;&quot;&gt;moderate/&lt;/span&gt;&lt;span class=&quot;NormalTextRun SCXW152208866 BCX0&quot; style=&quot;box-sizing: border-box; border: 0px solid; margin: 0px; padding: 0px; color: rgb(0, 0, 0); font-family: Manrope, sans-serif; font-style: normal; font-variant-ligatures: normal; font-variant-caps: normal; font-weight: 400; letter-spacing: normal; orphans: 2; text-align: left; text-indent: 0px; text-transform: none; widows: 2; word-spacing: 0px; -webkit-text-stroke-width: 0px; white-space: normal; text-decoration-thickness: initial; text-decoration-style: initial; text-decoration-color: initial;&quot;&gt;severe) and age groups&lt;/span&gt;" style="rounded=0;whiteSpace=wrap;html=1;fontSize=11;fillColor=#fff2cc;strokeColor=#d6b656;" parent="1" vertex="1">
          <mxGeometry x="1180" y="1840" width="120" height="60" as="geometry" />
        </mxCell>
        <mxCell id="Mi4fmV9KIByH30RvGFHp-14" value="AGE" style="text;html=1;align=center;verticalAlign=middle;whiteSpace=wrap;rounded=0;fontStyle=2" parent="1" vertex="1">
          <mxGeometry x="1155" y="1780" width="60" height="30" as="geometry" />
        </mxCell>
        <mxCell id="Mi4fmV9KIByH30RvGFHp-15" value="&lt;i&gt;RECOVD&lt;/i&gt;" style="text;html=1;align=center;verticalAlign=middle;whiteSpace=wrap;rounded=0;" parent="1" vertex="1">
          <mxGeometry x="1260" y="1780" width="60" height="30" as="geometry" />
        </mxCell>
        <mxCell id="Mi4fmV9KIByH30RvGFHp-16" value="&lt;i&gt;Domain Rules should be applied&lt;/i&gt;" style="text;html=1;align=center;verticalAlign=middle;whiteSpace=wrap;rounded=0;" parent="1" vertex="1">
          <mxGeometry x="1150" y="1940" width="100" height="30" as="geometry" />
        </mxCell>
        <mxCell id="QFel_NRyAwU1VO5TYLsp-1" value="Eg: Out of all symptoms extrcated from the records using &lt;b&gt;&lt;i&gt;LLMs&lt;/i&gt;&lt;/b&gt; or &lt;b&gt;&lt;i&gt;domain rules&lt;/i&gt;&lt;/b&gt; to assign MILD/MODERATE?SEVERE flags" style="text;html=1;align=center;verticalAlign=middle;whiteSpace=wrap;rounded=0;" parent="1" vertex="1">
          <mxGeometry x="1130" y="2050" width="250" height="30" as="geometry" />
        </mxCell>
        <mxCell id="ExIGtKoXuSOmTHukUmNq-1" value="&lt;span style=&quot;font-family: Manrope, sans-serif; text-align: left;&quot;&gt;&lt;font style=&quot;font-size: 13px;&quot;&gt;&lt;b&gt;HDBSCAN&lt;/b&gt;&lt;/font&gt;&lt;/span&gt;" style="text;html=1;align=center;verticalAlign=middle;whiteSpace=wrap;rounded=0;" parent="1" vertex="1">
          <mxGeometry x="1280" y="1940" width="60" height="30" as="geometry" />
        </mxCell>
        <mxCell id="B4wsTult83z3MiqoB-Mg-4" style="edgeStyle=orthogonalEdgeStyle;rounded=0;orthogonalLoop=1;jettySize=auto;html=1;exitX=1;exitY=0.5;exitDx=0;exitDy=0;entryX=0;entryY=0.5;entryDx=0;entryDy=0;" parent="1" source="B4wsTult83z3MiqoB-Mg-2" target="SyE5c-8Gou2E386hBkov-3" edge="1">
          <mxGeometry relative="1" as="geometry" />
        </mxCell>
        <mxCell id="B4wsTult83z3MiqoB-Mg-5" style="edgeStyle=orthogonalEdgeStyle;rounded=0;orthogonalLoop=1;jettySize=auto;html=1;exitX=1;exitY=0.5;exitDx=0;exitDy=0;entryX=0;entryY=0.5;entryDx=0;entryDy=0;" parent="1" source="B4wsTult83z3MiqoB-Mg-2" target="SyE5c-8Gou2E386hBkov-4" edge="1">
          <mxGeometry relative="1" as="geometry" />
        </mxCell>
        <mxCell id="B4wsTult83z3MiqoB-Mg-6" style="edgeStyle=orthogonalEdgeStyle;rounded=0;orthogonalLoop=1;jettySize=auto;html=1;exitX=1;exitY=0.5;exitDx=0;exitDy=0;entryX=0;entryY=0.5;entryDx=0;entryDy=0;" parent="1" source="B4wsTult83z3MiqoB-Mg-2" target="SyE5c-8Gou2E386hBkov-5" edge="1">
          <mxGeometry relative="1" as="geometry" />
        </mxCell>
        <mxCell id="B4wsTult83z3MiqoB-Mg-2" value="SYMPTOM_TEXT to lower()" style="rounded=0;whiteSpace=wrap;html=1;fillColor=#dae8fc;strokeColor=#6c8ebf;" parent="1" vertex="1">
          <mxGeometry x="390" y="1510" width="120" height="60" as="geometry" />
        </mxCell>
        <mxCell id="JhJwBfjX3yIoy57ChDbd-1" value="By Modifier (Mild/Moderate/Severe)" style="text;html=1;align=center;verticalAlign=middle;whiteSpace=wrap;rounded=0;fontStyle=1" vertex="1" parent="1">
          <mxGeometry x="740" y="240" width="65" height="40" as="geometry" />
        </mxCell>
        <mxCell id="JhJwBfjX3yIoy57ChDbd-2" value="Visualizations" style="rounded=1;whiteSpace=wrap;html=1;fillColor=#fff2cc;strokeColor=#d6b656;fontStyle=1" vertex="1" parent="1">
          <mxGeometry x="1170" y="170" width="120" height="60" as="geometry" />
        </mxCell>
        <mxCell id="JhJwBfjX3yIoy57ChDbd-4" value="Classification" style="text;html=1;align=center;verticalAlign=middle;whiteSpace=wrap;rounded=0;fontStyle=1" vertex="1" parent="1">
          <mxGeometry x="850" y="130" width="60" height="30" as="geometry" />
        </mxCell>
      </root>
    </mxGraphModel>
  </diagram>
</mxfile>
